<?xml version="1.0" encoding="utf-8"?>
<!-- Generator: Adobe Illustrator 19.0.1, SVG Export Plug-In . SVG Version: 6.00 Build 0)  -->
<!DOCTYPE svg PUBLIC "-//W3C//DTD SVG 1.1//EN" "http://www.w3.org/Graphics/SVG/1.1/DTD/svg11.dtd">
<svg version="1.1" id="Layer_1" xmlns="http://www.w3.org/2000/svg" xmlns:xlink="http://www.w3.org/1999/xlink" x="0px" y="0px"
	 viewBox="-298 335 626 123" style="enable-background:new -298 335 626 123;" xml:space="preserve">
<style type="text/css">
	.st0{fill:#FFFFFF;}
</style>
<g>
	<path class="st0" d="M-40.2,432.6h5.7v1.2h-4.3v2.8h3.8v1.2h-3.8v2.5h4.5v1.2h-5.9L-40.2,432.6L-40.2,432.6z"/>
	<path class="st0" d="M-27.9,439.9l1.2-0.6c0.4,0.7,1,1.3,2.1,1.3c0.9,0,1.6-0.5,1.6-1.2c0-0.8-0.5-1.1-1.5-1.6l-0.6-0.3
		c-1.3-0.6-2.1-1.2-2.1-2.6c0-1.3,1-2.3,2.5-2.3c1.2,0,2,0.5,2.5,1.4l-1.1,0.7c-0.3-0.6-0.7-0.9-1.4-0.9c-0.7,0-1.2,0.4-1.2,1
		c0,0.7,0.4,1,1.3,1.4l0.6,0.3c1.5,0.7,2.4,1.4,2.4,2.8c0,1.6-1.2,2.5-2.9,2.5C-26.3,441.8-27.4,440.9-27.9,439.9z"/>
	<path class="st0" d="M-12.8,433.9h-2.7v-1.2h6.8v1.2h-2.7v7.8h-1.4L-12.8,433.9L-12.8,433.9z"/>
</g>
<g>
	<path class="st0" d="M8.9,433.7H6v-1.6h4.8v15.7H8.9V433.7z"/>
	<path class="st0" d="M28.2,442.9c0.4-0.6,1.2-1.3,1.2-1.3c-0.7,0.6-1.7,1-2.7,1c-3,0-5.3-2.1-5.3-5.2s2.5-5.4,5.7-5.4
		s5.7,2.2,5.7,5.4c0,1.6-0.7,2.9-1.7,4.5l-4.1,6.2h-2.1L28.2,442.9z M30.9,437.3c0-2.1-1.5-3.7-3.8-3.7c-2.2,0-3.8,1.6-3.8,3.7
		c0,2.2,1.5,3.8,3.8,3.8S30.9,439.4,30.9,437.3z"/>
	<path class="st0" d="M49.6,433.7h-7.8v-1.6h10.3v0.2l-7.3,15.5H43L49.6,433.7z"/>
	<path class="st0" d="M60.8,445.3l1.6-0.8c0.7,1.2,1.8,2.1,3.7,2.1c2.2,0,3.7-1.5,3.7-3.7c0-2.2-1.3-3.7-3.8-3.7
		c-1.8,0-2.9,0.7-3.7,1.4l-0.2-0.1v-8.2h8.7v1.6h-7v4.4c0.6-0.4,1.4-0.7,2.7-0.7c3.2,0,5.4,2.2,5.4,5.3c0,3.1-2.3,5.4-5.7,5.4
		C63.4,448.2,61.6,446.9,60.8,445.3z"/>
</g>
<rect x="-40.2" y="446.7" class="st0" width="28.9" height="1.1"/>
<g>
	<path class="st0" d="M46.1,373.6c4.8-1.7,7-6,7-11.6c0-7.5-4.6-13.5-15.1-13.5H20.1v56.3h20.4c12.1,0,17.3-7.1,17.3-16.1
		C57.8,381,53.2,375.2,46.1,373.6z M23.5,351.5h14.2c8.9,0,12,4.6,12,10.5c0,6-2.6,10.5-10.5,10.5H23.6v-21H23.5z M40.1,401.8H23.5
		v-26.3H40c10.1,0,14.4,5.6,14.4,13.2C54.4,396.1,50.6,401.8,40.1,401.8z"/>
	<polygon class="st0" points="72,378.1 98.4,378.1 98.4,375.1 72,375.1 72,351.5 101.5,351.5 101.5,348.5 68.6,348.5 68.6,404.8 
		102.7,404.8 102.7,401.8 72,401.8 	"/>
	<polygon class="st0" points="131.3,376.1 112.1,348.5 108.3,348.5 129.6,379.4 129.6,404.8 133.1,404.8 133.1,379.5 154.3,348.5 
		150.8,348.5 	"/>
	<path class="st0" d="M183.2,347.8c-15.9,0-28.8,11.7-28.8,28.8s12.9,28.8,28.8,28.8s28.8-11.7,28.8-28.8
		C212,359.5,199.1,347.8,183.2,347.8z M183.2,402.4c-14.5,0-25.3-11-25.3-25.7c0-14.7,10.8-25.7,25.3-25.7s25.3,11,25.3,25.7
		C208.5,391.4,197.6,402.4,183.2,402.4z"/>
	<path class="st0" d="M262.3,394c0,1.7,0.2,4.2,0.2,4.2s-1.5-2.3-2.6-3.7l-36-46.7h-1v56.9h3.1v-45.5c0-1.7-0.2-4.2-0.2-4.2
		s1.5,2.3,2.6,3.7l36,46.7h1v-56.9h-3.1V394z"/>
	<path class="st0" d="M290.2,348.5h-12v56.3h12c19.5,0,30.8-10.8,30.8-28.1C321,359.3,309.7,348.5,290.2,348.5z M289.8,401.7h-8.2
		v-50.2h8.2c18.6,0,27.6,10.3,27.6,25.1C317.4,391.4,308.4,401.7,289.8,401.7z"/>
	<path class="st0" d="M-158.9,348.5h-12.6v1h7.3l-20.8,54.6h-9.3c-0.9-2.2-7.2-18.1-8.8-22.2c-1-2.7-2.8-3.8-4.2-4.4
		c7.4-2.9,10.9-8.2,10.9-14.2c0-1.4-0.2-2.7-0.5-3.9c-2.1-8-11.6-11-22.6-11c-3.1,0-24.9,0-24.9,0v1h6.7v54.5h-6.7v1h22.4v-1h-6.7
		v-24.1h8.8c0,0,2.1,0,2.5,0s0.8,0.2,1,0.3c1.9,0.9,4.5,2.9,6.7,8.4c3.2,8.2,5.5,14.4,6,15.7h-7.1v1h34.2v-1h-6.9l5.9-15.4h24.6
		l5.9,15.4h-7.1v1h22.7v-1h-6.1L-158.9,348.5z M-221.4,378.9h-7.3v-29.3c0,0,4.3,0,6.4,0c7.4,0,13.9,2.5,16.2,8.9v0.1
		c0.1,0.3,0.2,0.5,0.2,0.8c0.3,1.2,0.5,2.5,0.5,3.9C-205.4,371.7-210.5,378.9-221.4,378.9z M-177.3,387.4l11.8-31l11.9,31H-177.3z"
		/>
	<path class="st0" d="M-291,363.6v0.3c3-10.2,6.3-14.1,15.7-14.3h1.9v54.5h-8.2v1h25.3v-1h-8.2v-54.5h1.9
		c9.3,0.2,12.7,4.1,15.7,14.3v-0.3v-15H-291V363.6z"/>
	<path class="st0" d="M-96.5,350.3c-2.2,0-4.5-0.6-7.4-1.7l5.5,13.3l-13.8,32.1l-18.5-44.4h7.5v-1h-23.3v1h6.1l23.4,56h1.1
		l19.6-45.8l0,0l6.4-11.2C-92.3,349.7-94.4,350.3-96.5,350.3z"/>
	<path class="st0" d="M-59.8,404.1h-12.4v-26.7h21.4v10.2h1.3v-21.5h-1.3v10.1h-21.4v-26.7h12.9c9.7,0.8,13.2,3.7,18.3,12.9l-1-13.9
		h-45.7v1h6.7v54.6h-6.7v1h46.5l1.3-16.8C-44.7,399.2-48.4,403.1-59.8,404.1z"/>
	<path class="st0" d="M-6.1,404.1h-12.6v-54.6h6.7v-1h-22.3v1h6.7v54.6h-6.7v1H9.6l1.1-18.9C6.8,398.1,2.1,404.1-6.1,404.1z"/>
</g>
</svg>
